<?xml version="1.0" encoding="UTF-8" standalone="no"?>
<svg
   sodipodi:docname="Baseicon.svg"
   inkscape:version="1.2.2 (732a01da63, 2022-12-09)"
   id="svg8"
   version="1.1"
   viewBox="0 0 396.87499 396.875"
   height="1500"
   width="1500"
   inkscape:export-filename="Logo_alpha_01.png"
   inkscape:export-xdpi="32"
   inkscape:export-ydpi="32"
   xml:space="preserve"
   xmlns:inkscape="http://www.inkscape.org/namespaces/inkscape"
   xmlns:sodipodi="http://sodipodi.sourceforge.net/DTD/sodipodi-0.dtd"
   xmlns="http://www.w3.org/2000/svg"
   xmlns:svg="http://www.w3.org/2000/svg"
   xmlns:rdf="http://www.w3.org/1999/02/22-rdf-syntax-ns#"
   xmlns:cc="http://creativecommons.org/ns#"
   xmlns:dc="http://purl.org/dc/elements/1.1/"><defs
     id="defs2" /><sodipodi:namedview
     inkscape:pagecheckerboard="false"
     units="px"
     inkscape:guide-bbox="true"
     showguides="false"
     inkscape:snap-object-midpoints="true"
     inkscape:snap-midpoints="false"
     inkscape:object-paths="true"
     inkscape:snap-global="true"
     inkscape:window-maximized="1"
     inkscape:window-y="13"
     inkscape:window-x="-8"
     inkscape:window-height="987"
     inkscape:window-width="1680"
     showborder="true"
     showgrid="false"
     inkscape:document-rotation="0"
     inkscape:current-layer="layer3"
     inkscape:document-units="px"
     inkscape:cy="634.28571"
     inkscape:cx="154.28571"
     inkscape:zoom="0.35"
     inkscape:pageshadow="2"
     inkscape:pageopacity="0.0"
     borderopacity="1.0"
     bordercolor="#666666"
     pagecolor="#ffffff"
     id="base"
     inkscape:showpageshadow="0"
     inkscape:deskcolor="#d1d1d1"><sodipodi:guide
       id="guide3368"
       orientation="0,-1"
       position="-836.08332,396.875"
       inkscape:locked="false" /><sodipodi:guide
       id="guide3370"
       orientation="1,0"
       position="0.37797619,703.32441"
       inkscape:locked="false" /></sodipodi:namedview><metadata
     id="metadata5"><rdf:RDF><cc:Work
         rdf:about=""><dc:format>image/svg+xml</dc:format><dc:type
           rdf:resource="http://purl.org/dc/dcmitype/StillImage" /><dc:title /></cc:Work></rdf:RDF></metadata><g
     style="display:inline;opacity:1"
     inkscape:label="Base_Gota"
     id="layer2"
     inkscape:groupmode="layer"><path
       d="m 190.21828,25.10326 c -26.898,34.76474 -52.48717,70.59841 -75.37458,108.14124 -13.06972,21.54211 -25.205574,43.73095 -34.854174,67.03552 -4.66986,11.50347 -8.62749,23.31064 -10.75329,35.56661 -1.15412,7.03864 -1.31086,14.19595 -0.75539,21.30723 1.66268,23.79594 9.99484,47.14429 23.99841,66.5662 14.197174,19.79371 34.061454,35.6591 56.701924,44.84844 20.2013,8.26177 42.44368,11.29749 64.10141,8.78919 17.87316,-2.01962 35.44428,-7.80006 50.94052,-16.96202 18.99937,-11.1378 35.11752,-27.06792 46.32684,-46.00592 12.13258,-20.41909 18.58141,-44.16677 18.13205,-67.91284 -0.29101,-9.93612 -2.82363,-19.67734 -6.02331,-29.05433 -7.31058,-21.04312 -17.83499,-40.81115 -29.20432,-59.9205 C 274.12195,125.07083 251.94264,94.43582 228.85525,64.59509 217.36561,49.80471 205.51456,35.29138 193.43508,20.98607 c -1.07227,1.3724 -2.14453,2.7448 -3.2168,4.11719 z"
       style="display:inline;fill:#f8c537;fill-opacity:1;fill-rule:evenodd;stroke:#443226;stroke-width:10.5833;stroke-miterlimit:4;stroke-dasharray:none;stroke-opacity:1"
       id="path834"
       inkscape:export-filename="B:\OneDrive\Escritorio\Icon_Discord.png"
       inkscape:export-xdpi="96"
       inkscape:export-ydpi="96" /><g
       id="g184"
       style="fill:#443226;fill-opacity:1;stroke:none;stroke-width:1.00037;stroke-miterlimit:4;stroke-dasharray:none;stroke-opacity:1"
       transform="matrix(0.33139983,0,0,0.33139983,118.88987,145.76412)" /><g
       id="g186"
       style="fill:#443226;fill-opacity:1;stroke:none;stroke-width:1.00037;stroke-miterlimit:4;stroke-dasharray:none;stroke-opacity:1"
       transform="matrix(0.33139983,0,0,0.33139983,118.88987,145.76412)" /><g
       id="g188"
       style="fill:#443226;fill-opacity:1;stroke:none;stroke-width:1.00037;stroke-miterlimit:4;stroke-dasharray:none;stroke-opacity:1"
       transform="matrix(0.33139983,0,0,0.33139983,118.88987,145.76412)" /><g
       id="g190"
       style="fill:#443226;fill-opacity:1;stroke:none;stroke-width:1.00037;stroke-miterlimit:4;stroke-dasharray:none;stroke-opacity:1"
       transform="matrix(0.33139983,0,0,0.33139983,118.88987,145.76412)" /><g
       id="g192"
       style="fill:#443226;fill-opacity:1;stroke:none;stroke-width:1.00037;stroke-miterlimit:4;stroke-dasharray:none;stroke-opacity:1"
       transform="matrix(0.33139983,0,0,0.33139983,118.88987,145.76412)" /><g
       id="g194"
       style="fill:#443226;fill-opacity:1;stroke:none;stroke-width:1.00037;stroke-miterlimit:4;stroke-dasharray:none;stroke-opacity:1"
       transform="matrix(0.33139983,0,0,0.33139983,118.88987,145.76412)" /><g
       id="g196"
       style="fill:#443226;fill-opacity:1;stroke:none;stroke-width:1.00037;stroke-miterlimit:4;stroke-dasharray:none;stroke-opacity:1"
       transform="matrix(0.33139983,0,0,0.33139983,118.88987,145.76412)" /><g
       id="g198"
       style="fill:#443226;fill-opacity:1;stroke:none;stroke-width:1.00037;stroke-miterlimit:4;stroke-dasharray:none;stroke-opacity:1"
       transform="matrix(0.33139983,0,0,0.33139983,118.88987,145.76412)" /><g
       id="g200"
       style="fill:#443226;fill-opacity:1;stroke:none;stroke-width:1.00037;stroke-miterlimit:4;stroke-dasharray:none;stroke-opacity:1"
       transform="matrix(0.33139983,0,0,0.33139983,118.88987,145.76412)" /><g
       id="g202"
       style="fill:#443226;fill-opacity:1;stroke:none;stroke-width:1.00037;stroke-miterlimit:4;stroke-dasharray:none;stroke-opacity:1"
       transform="matrix(0.33139983,0,0,0.33139983,118.88987,145.76412)" /><g
       id="g204"
       style="fill:#443226;fill-opacity:1;stroke:none;stroke-width:1.00037;stroke-miterlimit:4;stroke-dasharray:none;stroke-opacity:1"
       transform="matrix(0.33139983,0,0,0.33139983,118.88987,145.76412)" /><g
       id="g206"
       style="fill:#443226;fill-opacity:1;stroke:none;stroke-width:1.00037;stroke-miterlimit:4;stroke-dasharray:none;stroke-opacity:1"
       transform="matrix(0.33139983,0,0,0.33139983,118.88987,145.76412)" /><g
       id="g208"
       style="display:inline;fill:#443226;fill-opacity:1;stroke:none;stroke-width:1.00037;stroke-miterlimit:4;stroke-dasharray:none;stroke-opacity:1"
       transform="matrix(0.33139983,0,0,0.33139983,118.88987,145.76412)" /><g
       id="g210"
       style="fill:#443226;fill-opacity:1;stroke:none;stroke-width:1.00037;stroke-miterlimit:4;stroke-dasharray:none;stroke-opacity:1"
       transform="matrix(0.33139983,0,0,0.33139983,118.88987,145.76412)" /><g
       id="g212"
       style="fill:#443226;fill-opacity:1;stroke:none;stroke-width:1.00037;stroke-miterlimit:4;stroke-dasharray:none;stroke-opacity:1"
       transform="matrix(0.33139983,0,0,0.33139983,118.88987,145.76412)" /></g><g
     inkscape:groupmode="layer"
     id="layer4"
     inkscape:label="Youtube"
     style="display:none"><path
       sodipodi:type="star"
       style="fill:#bf4e30;fill-opacity:1;stroke:#443226;stroke-width:8.55183;stroke-dasharray:none;stroke-opacity:1"
       id="path4629-7"
       inkscape:flatsided="false"
       sodipodi:sides="3"
       sodipodi:cx="123.22024"
       sodipodi:cy="192.0119"
       sodipodi:r1="84.186081"
       sodipodi:r2="42.09304"
       sodipodi:arg1="0"
       sodipodi:arg2="1.0471976"
       inkscape:rounded="0"
       inkscape:randomized="0"
       d="m 207.40632,192.0119 -63.13956,36.45365 -63.139563,36.45364 0,-72.90729 0,-72.90728 63.139563,36.45364 z"
       inkscape:transform-center-x="-17.819015"
       transform="matrix(0.84664875,0,0,0.84664875,58.987105,81.181)" /><path
       sodipodi:type="star"
       style="fill:#bf4e30;fill-opacity:1;stroke:#443226;stroke-width:8.55183;stroke-dasharray:none;stroke-opacity:1"
       id="path4629"
       inkscape:flatsided="false"
       sodipodi:sides="3"
       sodipodi:cx="123.22024"
       sodipodi:cy="192.0119"
       sodipodi:r1="84.186081"
       sodipodi:r2="42.09304"
       sodipodi:arg1="0"
       sodipodi:arg2="1.0471976"
       inkscape:rounded="0"
       inkscape:randomized="0"
       d="m 207.40632,192.0119 -63.13956,36.45365 -63.139563,36.45364 0,-72.90729 0,-72.90728 63.139563,36.45364 z"
       inkscape:transform-center-x="-17.819015"
       transform="matrix(0.84664875,0,0,0.84664875,118.6817,81.181)" /></g><g
     inkscape:groupmode="layer"
     id="layer3"
     inkscape:label="Mando"
     style="display:inline"><g
       id="g158"
       style="display:inline;opacity:1;fill:#bf4e30;fill-opacity:1;stroke:#443226;stroke-width:23.9514;stroke-miterlimit:4;stroke-dasharray:none;stroke-opacity:1"
       transform="matrix(0.33139983,0,0,0.33139983,118.88987,145.76412)"
       inkscape:export-filename="B:\OneDrive\Escritorio\Icon_Discord.png"
       inkscape:export-xdpi="96"
       inkscape:export-ydpi="96"><g
         id="g156"
         style="fill:#bf4e30;fill-opacity:1;stroke:#443226;stroke-width:23.9514;stroke-miterlimit:4;stroke-dasharray:none;stroke-opacity:1"><path
           id="path154"
           style="fill:#bf4e30;fill-opacity:1;stroke:#443226;stroke-width:30;stroke-miterlimit:4;stroke-dasharray:none;stroke-opacity:1"
           d="m 609.71484,831.52734 c -5.91196,0.0138 -11.81967,0.34813 -17.69531,1.00196 -69.13992,7.415 -133.95167,72.01666 -141.61719,141.0664 -10.06662,87.9705 53.08682,167.4451 141.0586,177.5117 35.82249,4.0996 71.98023,-3.9963 102.63476,-22.9785 13.19796,-8.64 28.28301,-13.9703 43.97852,-15.541 7.75319,-0.6125 15.53993,-0.64 23.29687,-0.08 15.94352,1.5419 31.27156,6.9332 44.66993,15.711 75.32118,46.5492 174.11876,23.2267 220.66798,-52.0958 18.9408,-30.6482 27.0073,-66.7844 22.8965,-102.57808 -7.6856,-69.04974 -72.53666,-133.65072 -141.64652,-141.01562 -5.86937,-0.64756 -11.77008,-0.98192 -17.67578,-1.00196 H 880.03125 780.05859 760.01953 739.97852 719.9375 627.69727 Z"
           transform="matrix(0.79838101,0,0,0.79838101,-358.75055,-439.84368)"
           sodipodi:nodetypes="ccccccccscccccccccc" /></g></g><g
       id="g152"
       style="display:inline;opacity:1;fill:#443226;fill-opacity:1;stroke:none;stroke-width:1.00037;stroke-miterlimit:4;stroke-dasharray:none;stroke-opacity:1"
       transform="matrix(0.33139983,0,0,0.33139983,118.88987,145.76412)"
       inkscape:export-filename="B:\OneDrive\Escritorio\Icon_Discord.png"
       inkscape:export-xdpi="96"
       inkscape:export-ydpi="96"><g
         id="g150"
         style="fill:#443226;fill-opacity:1;stroke:none;stroke-width:1.00037;stroke-miterlimit:4;stroke-dasharray:none;stroke-opacity:1"><path
           d="m 184.034,328.032 h -32 v -32 c 0,-4.418 -3.582,-8 -8,-8 h -32 c -4.418,0 -8,3.582 -8,8 v 32 h -32 c -4.418,0 -8,3.582 -8,8 v 32 c 0,4.418 3.582,8 8,8 h 32 v 32 c 0,4.418 3.582,8 8,8 h 32 c 4.418,0 8,-3.582 8,-8 v -32 h 32 c 4.418,0 8,-3.582 8,-8 v -32 c 0,-4.418 -3.582,-8 -8,-8 z m -8,32 h -32 c -4.418,0 -8,3.582 -8,8 v 32 h -16 v -32 c 0,-4.418 -3.582,-8 -8,-8 h -32 v -16 h 32 c 4.418,0 8,-3.582 8,-8 v -32 h 16 v 32 c 0,4.418 3.582,8 8,8 h 32 z"
           id="path148"
           style="fill:#443226;fill-opacity:1;stroke:none;stroke-width:1.00037;stroke-miterlimit:4;stroke-dasharray:none;stroke-opacity:1" /></g></g><g
       id="g164"
       style="display:inline;opacity:1;fill:#443226;fill-opacity:1;stroke:none;stroke-width:1.00037;stroke-miterlimit:4;stroke-dasharray:none;stroke-opacity:1"
       transform="matrix(0.33139983,0,0,0.33139983,118.88987,145.76412)"
       inkscape:export-filename="B:\OneDrive\Escritorio\Icon_Discord.png"
       inkscape:export-xdpi="96"
       inkscape:export-ydpi="96"><g
         id="g162"
         style="fill:#443226;fill-opacity:1;stroke:none;stroke-width:1.00037;stroke-miterlimit:4;stroke-dasharray:none;stroke-opacity:1"><path
           d="m 352.034,272.032 c -17.673,0 -32,14.327 -32,32 0,17.673 14.327,32 32,32 17.673,0 32,-14.327 32,-32 0,-17.673 -14.327,-32 -32,-32 z m 0,48 c -8.837,0 -16,-7.163 -16,-16 0,-8.837 7.163,-16 16,-16 8.837,0 16,7.163 16,16 0,8.837 -7.164,16 -16,16 z"
           id="path160"
           style="fill:#443226;fill-opacity:1;stroke:none;stroke-width:1.00037;stroke-miterlimit:4;stroke-dasharray:none;stroke-opacity:1" /></g></g><g
       id="g170"
       style="display:inline;opacity:1;fill:#443226;fill-opacity:1;stroke:none;stroke-width:1.00037;stroke-miterlimit:4;stroke-dasharray:none;stroke-opacity:1"
       transform="matrix(0.33139983,0,0,0.33139983,118.88987,145.76412)"
       inkscape:export-filename="B:\OneDrive\Escritorio\Icon_Discord.png"
       inkscape:export-xdpi="96"
       inkscape:export-ydpi="96"><g
         id="g168"
         style="fill:#443226;fill-opacity:1;stroke:none;stroke-width:1.00037;stroke-miterlimit:4;stroke-dasharray:none;stroke-opacity:1"><path
           d="m 352.034,368.032 c -17.673,0 -32,14.327 -32,32 0,17.673 14.327,32 32,32 17.673,0 32,-14.327 32,-32 0,-17.673 -14.327,-32 -32,-32 z m 0,48 c -8.837,0 -16,-7.163 -16,-16 0,-8.837 7.163,-16 16,-16 8.837,0 16,7.163 16,16 0,8.837 -7.164,16 -16,16 z"
           id="path166"
           style="fill:#443226;fill-opacity:1;stroke:none;stroke-width:1.00037;stroke-miterlimit:4;stroke-dasharray:none;stroke-opacity:1" /></g></g><g
       id="g176"
       style="display:inline;opacity:1;fill:#443226;fill-opacity:1;stroke:none;stroke-width:1.00037;stroke-miterlimit:4;stroke-dasharray:none;stroke-opacity:1"
       transform="matrix(0.33139983,0,0,0.33139983,118.88987,145.76412)"
       inkscape:export-filename="B:\OneDrive\Escritorio\Icon_Discord.png"
       inkscape:export-xdpi="96"
       inkscape:export-ydpi="96"><g
         id="g174"
         style="fill:#443226;fill-opacity:1;stroke:none;stroke-width:1.00037;stroke-miterlimit:4;stroke-dasharray:none;stroke-opacity:1"><path
           d="m 296.034,320.032 c -17.673,0 -32,14.327 -32,32 0,17.673 14.327,32 32,32 17.673,0 32,-14.327 32,-32 0,-17.673 -14.327,-32 -32,-32 z m 0,48 c -8.837,0 -16,-7.163 -16,-16 0,-8.837 7.163,-16 16,-16 8.837,0 16,7.163 16,16 0,8.837 -7.164,16 -16,16 z"
           id="path172"
           style="fill:#443226;fill-opacity:1;stroke:none;stroke-width:1.00037;stroke-miterlimit:4;stroke-dasharray:none;stroke-opacity:1" /></g></g><g
       id="g182"
       style="display:inline;opacity:1;fill:#443226;fill-opacity:1;stroke:none;stroke-width:1.00037;stroke-miterlimit:4;stroke-dasharray:none;stroke-opacity:1"
       transform="matrix(0.33139983,0,0,0.33139983,118.88987,145.76412)"
       inkscape:export-filename="B:\OneDrive\Escritorio\Icon_Discord.png"
       inkscape:export-xdpi="96"
       inkscape:export-ydpi="96"><g
         id="g180"
         style="fill:#443226;fill-opacity:1;stroke:none;stroke-width:1.00037;stroke-miterlimit:4;stroke-dasharray:none;stroke-opacity:1"><path
           d="m 408.034,320.032 c -17.673,0 -32,14.327 -32,32 0,17.673 14.327,32 32,32 17.673,0 32,-14.327 32,-32 0,-17.673 -14.327,-32 -32,-32 z m 0,48 c -8.837,0 -16,-7.163 -16,-16 0,-8.837 7.163,-16 16,-16 8.837,0 16,7.163 16,16 0,8.837 -7.164,16 -16,16 z"
           id="path178"
           style="fill:#443226;fill-opacity:1;stroke:none;stroke-width:1.00037;stroke-miterlimit:4;stroke-dasharray:none;stroke-opacity:1" /></g></g><path
       d="m 177.22751,265.07866 h -10.60479 c -1.46413,0 -2.6512,1.18707 -2.6512,2.6512 v 10.60479 h -5.3024 v -10.60479 c 0,-1.46413 -1.18707,-2.6512 -2.6512,-2.6512 h -10.60479 v -5.3024 h 10.60479 c 1.46413,0 2.6512,-1.18707 2.6512,-2.6512 v -10.60479 h 5.3024 v 10.60479 c 0,1.46413 1.18707,2.6512 2.6512,2.6512 h 10.60479 z"
       id="path148-9"
       style="display:inline;opacity:1;fill:#f8c537;fill-opacity:1;stroke:none;stroke-width:0.331523;stroke-miterlimit:4;stroke-dasharray:none;stroke-opacity:1"
       sodipodi:nodetypes="cssccssccssccsscc"
       inkscape:export-filename="B:\OneDrive\Escritorio\Icon_Discord.png"
       inkscape:export-xdpi="96"
       inkscape:export-ydpi="96" /><circle
       style="opacity:1;fill:#f8c537;fill-opacity:1;stroke:none;stroke-width:0.54319;stroke-miterlimit:4;stroke-dasharray:none;stroke-opacity:1"
       id="path1220"
       cx="216.99548"
       cy="262.42746"
       r="5.4434161"
       inkscape:export-filename="B:\OneDrive\Escritorio\Icon_Discord.png"
       inkscape:export-xdpi="96"
       inkscape:export-ydpi="96" /><circle
       style="display:inline;opacity:1;fill:#f8c537;fill-opacity:1;stroke:none;stroke-width:0.54319;stroke-miterlimit:4;stroke-dasharray:none;stroke-opacity:1"
       id="path1220-6"
       cx="235.55388"
       cy="246.52028"
       r="5.4434161"
       inkscape:export-filename="B:\OneDrive\Escritorio\Icon_Discord.png"
       inkscape:export-xdpi="96"
       inkscape:export-ydpi="96" /><circle
       style="display:inline;opacity:1;fill:#f8c537;fill-opacity:1;stroke:none;stroke-width:0.54319;stroke-miterlimit:4;stroke-dasharray:none;stroke-opacity:1"
       id="path1220-6-4"
       cx="235.55388"
       cy="278.33466"
       r="5.4434161"
       inkscape:export-filename="B:\OneDrive\Escritorio\Icon_Discord.png"
       inkscape:export-xdpi="96"
       inkscape:export-ydpi="96" /><circle
       style="display:inline;opacity:1;fill:#f8c537;fill-opacity:1;stroke:none;stroke-width:0.54319;stroke-miterlimit:4;stroke-dasharray:none;stroke-opacity:1"
       id="path1220-6-4-9"
       cx="254.11227"
       cy="262.42746"
       r="5.4434161"
       inkscape:export-filename="B:\OneDrive\Escritorio\Icon_Discord.png"
       inkscape:export-xdpi="96"
       inkscape:export-ydpi="96" /></g><g
     inkscape:groupmode="layer"
     id="layer1-0"
     inkscape:label="R"
     style="display:none;stroke-width:3.175;stroke-dasharray:none"><text
       xml:space="preserve"
       style="font-size:231.571px;line-height:1.25;font-family:'Old English Text MT';-inkscape-font-specification:'Old English Text MT';fill:#bf4e30;fill-opacity:1;stroke:#443226;stroke-width:3.78934;stroke-dasharray:none;stroke-opacity:1"
       x="119.30368"
       y="325.87933"
       id="text223-0"
       transform="scale(0.98587877,1.0143235)"><tspan
         sodipodi:role="line"
         id="tspan221-5"
         style="font-style:normal;font-variant:normal;font-weight:normal;font-stretch:normal;font-size:231.571px;font-family:Canterbury;-inkscape-font-specification:Canterbury;fill:#bf4e30;fill-opacity:1;stroke:#443226;stroke-width:3.78934;stroke-dasharray:none;stroke-opacity:1"
         x="119.30368"
         y="325.87933">R</tspan></text></g><g
     inkscape:groupmode="layer"
     id="layer1"
     inkscape:label="alpha"
     style="display:none;stroke-width:3.175;stroke-dasharray:none"><text
       xml:space="preserve"
       style="font-size:263.391px;line-height:1.25;font-family:'Old English Text MT';-inkscape-font-specification:'Old English Text MT';fill:#bf4e30;fill-opacity:1;stroke:#443226;stroke-width:4.31003;stroke-dasharray:none;stroke-opacity:1"
       x="116.94131"
       y="309.95868"
       id="text223"
       transform="scale(0.98587877,1.0143235)"><tspan
         sodipodi:role="line"
         id="tspan221"
         style="font-style:normal;font-variant:normal;font-weight:normal;font-stretch:normal;font-size:263.391px;font-family:'Segoe Script';-inkscape-font-specification:'Segoe Script';fill:#bf4e30;fill-opacity:1;stroke:#443226;stroke-width:4.31003;stroke-dasharray:none;stroke-opacity:1"
         x="116.94131"
         y="309.95868">α</tspan></text></g><g
     style="display:none"
     inkscape:label="CPU"
     id="layer5"
     inkscape:groupmode="layer"><path
       d="m 315.3134,236.86667 c 0.14976,1.05715 0.30283,2.35682 0.45888,3.94239 0.16382,1.66434 0.33064,3.59917 0.4992,5.76089 0.068,0.87176 0.13821,2.15165 0.2067,3.09439 0.0241,-4.00937 -0.27212,-8.02697 -0.9927,-11.94294 -0.0512,-0.28641 -0.11792,-0.56904 -0.17208,-0.85473 z"
       style="display:inline;fill:#ffd42a;fill-opacity:1;fill-rule:evenodd;stroke-width:0.264583"
       id="path1033" /><path
       id="path1288"
       d="m 264.98041,257.23127 h -45.46267 l -24.59148,24.59148 h -52.61948 l -43.783704,43.7837"
       style="fill:none;stroke:#000000;stroke-width:0;stroke-linecap:butt;stroke-linejoin:miter;stroke-miterlimit:4;stroke-dasharray:none;stroke-opacity:1" /><path
       id="path1290"
       d="m 187.17812,240.13139 h 30.90768 l 14.61398,-14.61398 92.49358,-1e-5"
       style="fill:none;stroke:#000000;stroke-width:0;stroke-linecap:butt;stroke-linejoin:miter;stroke-miterlimit:4;stroke-dasharray:none;stroke-opacity:1" /><path
       id="path1294"
       d="M 197.80686,189.0667 H 121.42981 L 93.892946,216.60356 H 74.029076"
       style="fill:none;stroke:#000000;stroke-width:0;stroke-linecap:butt;stroke-linejoin:miter;stroke-miterlimit:4;stroke-dasharray:none;stroke-opacity:1" /><path
       style="fill:none;stroke:#443226;stroke-width:8.73125;stroke-linecap:butt;stroke-linejoin:miter;stroke-miterlimit:4;stroke-dasharray:none;stroke-opacity:1"
       d="m 195.67836,324.94564 25.87956,-25.87956 v -75.62876 h 103.03185"
       id="path61" /><path
       style="fill:none;stroke:#443226;stroke-width:8.73125;stroke-linecap:butt;stroke-linejoin:miter;stroke-miterlimit:4;stroke-dasharray:none;stroke-opacity:1"
       d="m 187.17812,240.13139 v 41.69137 l -68.83393,68.83392"
       id="path63" /><path
       style="fill:none;stroke:#443226;stroke-width:8.73125;stroke-linecap:butt;stroke-linejoin:miter;stroke-miterlimit:4;stroke-dasharray:none;stroke-opacity:1"
       d="m 138.00052,220.88798 v 37.14721 l -53.361686,53.36169"
       id="path73" /><path
       style="fill:none;stroke:#443226;stroke-width:8.73125;stroke-linecap:butt;stroke-linejoin:miter;stroke-miterlimit:4;stroke-dasharray:none;stroke-opacity:1"
       d="m 264.98042,257.23127 v 60.91471 l 23.72976,23.72976"
       id="path75" /><path
       style="fill:none;stroke:#443226;stroke-width:8.73125;stroke-linecap:butt;stroke-linejoin:miter;stroke-miterlimit:4;stroke-dasharray:none;stroke-opacity:1"
       d="M 71.698632,225.96447 135.60745,189.0667 h 62.19941"
       id="path79" /><circle
       r="13.455475"
       cy="189.0667"
       cx="197.80685"
       id="path1168"
       style="display:inline;fill:#bf4e30;fill-opacity:1;stroke:#443226;stroke-width:8.73125;stroke-miterlimit:4;stroke-dasharray:none;stroke-opacity:1" /><circle
       style="display:inline;fill:#bf4e30;fill-opacity:1;stroke:#443226;stroke-width:8.73125;stroke-miterlimit:4;stroke-dasharray:none;stroke-opacity:1"
       id="path1168-2"
       cx="138.00053"
       cy="220.88799"
       r="13.455475" /><circle
       r="13.455475"
       cy="240.13139"
       cx="187.17812"
       id="path1168-2-6"
       style="display:inline;fill:#bf4e30;fill-opacity:1;stroke:#443226;stroke-width:8.73125;stroke-miterlimit:4;stroke-dasharray:none;stroke-opacity:1" /><circle
       style="display:inline;fill:#bf4e30;fill-opacity:1;stroke:#443226;stroke-width:8.73125;stroke-miterlimit:4;stroke-dasharray:none;stroke-opacity:1"
       id="path1168-2-6-7"
       cx="264.98041"
       cy="257.23126"
       r="13.455475" /><circle
       r="13.455475"
       cy="324.94565"
       cx="195.67836"
       id="path1168-2-6-7-8"
       style="display:inline;fill:#bf4e30;fill-opacity:1;stroke:#443226;stroke-width:8.73125;stroke-miterlimit:4;stroke-dasharray:none;stroke-opacity:1" /></g></svg>
