<svg width="1280" height="720" xmlns="http://www.w3.org/2000/svg" xmlns:xlink="http://www.w3.org/1999/xlink" overflow="hidden"><defs><clipPath id="clip0"><rect x="0" y="0" width="1280" height="720"/></clipPath><clipPath id="clip1"><rect x="754" y="-86" width="116" height="673"/></clipPath><clipPath id="clip2"><rect x="869" y="-86" width="116" height="673"/></clipPath><clipPath id="clip3"><rect x="984" y="-86" width="116" height="673"/></clipPath><clipPath id="clip4"><rect x="754" y="24" width="116" height="672"/></clipPath><clipPath id="clip5"><rect x="869" y="24" width="116" height="672"/></clipPath><clipPath id="clip6"><rect x="984" y="24" width="116" height="672"/></clipPath><clipPath id="clip7"><rect x="754" y="133" width="116" height="673"/></clipPath><clipPath id="clip8"><rect x="869" y="133" width="116" height="673"/></clipPath><clipPath id="clip9"><rect x="984" y="133" width="116" height="673"/></clipPath><clipPath id="clip10"><rect x="202" y="20" width="116" height="673"/></clipPath><clipPath id="clip11"><rect x="317" y="20" width="116" height="673"/></clipPath><clipPath id="clip12"><rect x="202" y="20" width="116" height="673"/></clipPath><clipPath id="clip13"><rect x="317" y="20" width="116" height="673"/></clipPath></defs><g clip-path="url(#clip0)"><rect x="0" y="0" width="1280" height="720" fill="#FFFFFF"/><path d="M640 85.2976 754.965 85.2976 754.965 195.179 640 195.179Z" fill="#C9CDB3" fill-rule="evenodd"/><path d="M754.965 85.2976 869.931 85.2976 869.931 195.179 754.965 195.179Z" fill="#F1CCB5" fill-rule="evenodd"/><path d="M869.931 85.2976 984.896 85.2976 984.896 195.179 869.931 195.179Z" fill="#BFD3E4" fill-rule="evenodd"/><path d="M984.896 85.2976 1099.86 85.2976 1099.86 195.179 984.896 195.179Z" fill="#B29D94" fill-rule="evenodd"/><path d="M1099.86 85.2976 1214.83 85.2976 1214.83 195.179 1099.86 195.179Z" fill="#E0CBA3" fill-rule="evenodd"/><path d="M640 195.179 754.965 195.179 754.965 305.06 640 305.06Z" fill="#F8E6DA" fill-rule="evenodd"/><path d="M754.965 195.179 869.931 195.179 869.931 305.06 754.965 305.06Z" fill="#CADCD8" fill-rule="evenodd"/><path d="M869.931 195.179 984.896 195.179 984.896 305.06 869.931 305.06Z" fill="#CADCD8" fill-rule="evenodd"/><path d="M984.896 195.179 1099.86 195.179 1099.86 305.06 984.896 305.06Z" fill="#CADCD8" fill-rule="evenodd"/><path d="M1099.86 195.179 1214.83 195.179 1214.83 305.06 1099.86 305.06Z" fill="#F8E6DA" fill-rule="evenodd"/><path d="M640 305.06 754.965 305.06 754.965 414.94 640 414.94Z" fill="#EAF0F6" fill-rule="evenodd"/><path d="M754.965 305.06 869.931 305.06 869.931 414.94 754.965 414.94Z" fill="#CADCD8" fill-rule="evenodd"/><path d="M869.931 305.06 984.896 305.06 984.896 414.94 869.931 414.94Z" fill="#CADCD8" fill-rule="evenodd"/><path d="M984.896 305.06 1099.86 305.06 1099.86 414.94 984.896 414.94Z" fill="#CADCD8" fill-rule="evenodd"/><path d="M1099.86 305.06 1214.83 305.06 1214.83 414.94 1099.86 414.94Z" fill="#EAF0F6" fill-rule="evenodd"/><path d="M640 414.94 754.965 414.94 754.965 524.821 640 524.821Z" fill="#E5DEDB" fill-rule="evenodd"/><path d="M754.965 414.94 869.931 414.94 869.931 524.821 754.965 524.821Z" fill="#CADCD8" fill-rule="evenodd"/><path d="M869.931 414.94 984.896 414.94 984.896 524.821 869.931 524.821Z" fill="#CADCD8" fill-rule="evenodd"/><path d="M984.896 414.94 1099.86 414.94 1099.86 524.821 984.896 524.821Z" fill="#CADCD8" fill-rule="evenodd"/><path d="M1099.86 414.94 1214.83 414.94 1214.83 524.821 1099.86 524.821Z" fill="#E5DEDB" fill-rule="evenodd"/><path d="M640 524.821 754.965 524.821 754.965 634.702 640 634.702Z" fill="#E0CBA3" fill-rule="evenodd"/><path d="M754.965 524.821 869.931 524.821 869.931 634.702 754.965 634.702Z" fill="#F1CCB5" fill-rule="evenodd"/><path d="M869.931 524.821 984.896 524.821 984.896 634.702 869.931 634.702Z" fill="#BFD3E4" fill-rule="evenodd"/><path d="M984.896 524.821 1099.86 524.821 1099.86 634.702 984.896 634.702Z" fill="#B29D94" fill-rule="evenodd"/><path d="M1099.86 524.821 1214.83 524.821 1214.83 634.702 1099.86 634.702Z" fill="#C9CDB3" fill-rule="evenodd"/><path d="M754.965 84.631 754.965 195.179" stroke="#FFFFFF" stroke-width="1.33333" stroke-linejoin="round" stroke-miterlimit="10" fill="none" fill-rule="evenodd"/><path d="M754.965 195.179 754.965 524.821" stroke="#000000" stroke-width="1.33333" stroke-linejoin="round" stroke-miterlimit="10" fill="none" fill-rule="evenodd"/><path d="M754.965 524.821 754.965 635.369" stroke="#FFFFFF" stroke-width="1.33333" stroke-linejoin="round" stroke-miterlimit="10" fill="none" fill-rule="evenodd"/><path d="M869.931 84.631 869.931 195.179" stroke="#FFFFFF" stroke-width="1.33333" stroke-linejoin="round" stroke-miterlimit="10" fill="none" fill-rule="evenodd"/><path d="M869.931 195.179 869.931 524.821" stroke="#000000" stroke-width="1.33333" stroke-linejoin="round" stroke-miterlimit="10" fill="none" fill-rule="evenodd"/><path d="M869.931 524.821 869.931 635.369" stroke="#FFFFFF" stroke-width="1.33333" stroke-linejoin="round" stroke-miterlimit="10" fill="none" fill-rule="evenodd"/><path d="M984.896 84.631 984.896 195.179" stroke="#FFFFFF" stroke-width="1.33333" stroke-linejoin="round" stroke-miterlimit="10" fill="none" fill-rule="evenodd"/><path d="M984.896 195.179 984.896 524.821" stroke="#000000" stroke-width="1.33333" stroke-linejoin="round" stroke-miterlimit="10" fill="none" fill-rule="evenodd"/><path d="M984.896 524.821 984.896 635.369" stroke="#FFFFFF" stroke-width="1.33333" stroke-linejoin="round" stroke-miterlimit="10" fill="none" fill-rule="evenodd"/><path d="M1099.86 84.631 1099.86 195.179" stroke="#FFFFFF" stroke-width="1.33333" stroke-linejoin="round" stroke-miterlimit="10" fill="none" fill-rule="evenodd"/><path d="M1099.86 195.179 1099.86 524.821" stroke="#000000" stroke-width="1.33333" stroke-linejoin="round" stroke-miterlimit="10" fill="none" fill-rule="evenodd"/><path d="M1099.86 524.821 1099.86 635.369" stroke="#FFFFFF" stroke-width="1.33333" stroke-linejoin="round" stroke-miterlimit="10" fill="none" fill-rule="evenodd"/><path d="M639.333 195.179 755.632 195.179" stroke="#FFFFFF" stroke-width="4" stroke-linejoin="round" stroke-miterlimit="10" fill="none" fill-rule="evenodd"/><path d="M755.632 195.179 1099.19 195.179" stroke="#000000" stroke-width="1.33333" stroke-linejoin="round" stroke-miterlimit="10" fill="none" fill-rule="evenodd"/><path d="M1099.19 195.179 1215.49 195.179" stroke="#FFFFFF" stroke-width="4" stroke-linejoin="round" stroke-miterlimit="10" fill="none" fill-rule="evenodd"/><path d="M639.333 305.06 754.965 305.06" stroke="#FFFFFF" stroke-width="1.33333" stroke-linejoin="round" stroke-miterlimit="10" fill="none" fill-rule="evenodd"/><path d="M754.965 305.06 1099.86 305.06" stroke="#000000" stroke-width="1.33333" stroke-linejoin="round" stroke-miterlimit="10" fill="none" fill-rule="evenodd"/><path d="M1099.86 305.06 1215.49 305.06" stroke="#FFFFFF" stroke-width="1.33333" stroke-linejoin="round" stroke-miterlimit="10" fill="none" fill-rule="evenodd"/><path d="M639.333 414.94 754.965 414.94" stroke="#FFFFFF" stroke-width="1.33333" stroke-linejoin="round" stroke-miterlimit="10" fill="none" fill-rule="evenodd"/><path d="M754.965 414.94 1099.86 414.94" stroke="#000000" stroke-width="1.33333" stroke-linejoin="round" stroke-miterlimit="10" fill="none" fill-rule="evenodd"/><path d="M1099.86 414.94 1215.49 414.94" stroke="#FFFFFF" stroke-width="1.33333" stroke-linejoin="round" stroke-miterlimit="10" fill="none" fill-rule="evenodd"/><path d="M639.333 524.821 754.965 524.821" stroke="#FFFFFF" stroke-width="1.33333" stroke-linejoin="round" stroke-miterlimit="10" fill="none" fill-rule="evenodd"/><path d="M754.965 524.821 1099.86 524.821" stroke="#000000" stroke-width="1.33333" stroke-linejoin="round" stroke-miterlimit="10" fill="none" fill-rule="evenodd"/><path d="M1099.86 524.821 1215.49 524.821" stroke="#FFFFFF" stroke-width="1.33333" stroke-linejoin="round" stroke-miterlimit="10" fill="none" fill-rule="evenodd"/><path d="M640 84.631 640 635.369" stroke="#FFFFFF" stroke-width="1.33333" stroke-linejoin="round" stroke-miterlimit="10" fill="none" fill-rule="evenodd"/><path d="M1214.83 84.631 1214.83 635.369" stroke="#FFFFFF" stroke-width="1.33333" stroke-linejoin="round" stroke-miterlimit="10" fill="none" fill-rule="evenodd"/><path d="M639.333 85.2976 1215.49 85.2976" stroke="#FFFFFF" stroke-width="1.33333" stroke-linejoin="round" stroke-miterlimit="10" fill="none" fill-rule="evenodd"/><path d="M639.333 634.702 1215.49 634.702" stroke="#FFFFFF" stroke-width="1.33333" stroke-linejoin="round" stroke-miterlimit="10" fill="none" fill-rule="evenodd"/><text fill="#775F55" font-family="Calibri,Calibri_MSFontService,sans-serif" font-weight="700" font-size="48" transform="translate(673.983 156)">S7<tspan font-size="48" x="114.965" y="0">S4</tspan><tspan font-size="48" x="229.931" y="0">S5</tspan><tspan font-size="48" x="344.896" y="0">S6</tspan><tspan font-size="48" x="471.195" y="0">4</tspan><tspan font-size="48" x="0" y="110">S1</tspan></text><g clip-path="url(#clip1)"><text font-family="Calibri,Calibri_MSFontService,sans-serif" font-weight="700" font-size="80" transform="translate(792.198 277)">0</text></g><g clip-path="url(#clip2)"><text font-family="Calibri,Calibri_MSFontService,sans-serif" font-weight="700" font-size="80" transform="translate(907.163 277)">0</text></g><g clip-path="url(#clip3)"><text font-family="Calibri,Calibri_MSFontService,sans-serif" font-weight="700" font-size="80" transform="translate(1022.13 277)">0</text></g><text fill="#775F55" font-family="Calibri,Calibri_MSFontService,sans-serif" font-weight="700" font-size="48" transform="translate(1145.18 266)">0<tspan font-size="48" x="-471.195" y="110">S2</tspan></text><g clip-path="url(#clip4)"><text font-family="Calibri,Calibri_MSFontService,sans-serif" font-weight="700" font-size="80" transform="translate(792.198 387)">0</text></g><g clip-path="url(#clip5)"><text font-family="Calibri,Calibri_MSFontService,sans-serif" font-weight="700" font-size="80" transform="translate(907.163 387)">4</text></g><g clip-path="url(#clip6)"><text font-family="Calibri,Calibri_MSFontService,sans-serif" font-weight="700" font-size="80" transform="translate(1022.13 387)">1</text></g><text fill="#775F55" font-family="Calibri,Calibri_MSFontService,sans-serif" font-weight="700" font-size="48" transform="translate(1145.18 376)">5<tspan font-size="48" x="-471.195" y="110">S3</tspan></text><g clip-path="url(#clip7)"><text font-family="Calibri,Calibri_MSFontService,sans-serif" font-weight="700" font-size="80" transform="translate(792.198 497)">0</text></g><g clip-path="url(#clip8)"><text font-family="Calibri,Calibri_MSFontService,sans-serif" font-weight="700" font-size="80" transform="translate(907.163 497)">0</text></g><g clip-path="url(#clip9)"><text font-family="Calibri,Calibri_MSFontService,sans-serif" font-weight="700" font-size="80" transform="translate(1022.13 497)">0</text></g><text fill="#775F55" font-family="Calibri,Calibri_MSFontService,sans-serif" font-weight="700" font-size="48" transform="translate(1145.18 486)">0<tspan font-size="48" x="-471.195" y="110">S8</tspan><tspan font-size="48" x="-344.896" y="110">0</tspan><tspan font-size="48" x="-229.931" y="110">4</tspan><tspan font-size="48" x="-114.965" y="110">1</tspan><tspan font-size="48" x="0" y="110">4</tspan></text><path d="M88 191.667 202.965 191.667 202.965 301.548 88 301.548Z" fill="#CADCD8" fill-rule="evenodd"/><path d="M202.965 191.667 317.931 191.667 317.931 301.548 202.965 301.548Z" fill="#CADCD8" fill-rule="evenodd"/><path d="M317.931 191.667 432.896 191.667 432.896 301.548 317.931 301.548Z" fill="#CADCD8" fill-rule="evenodd"/><path d="M88 301.548 202.965 301.548 202.965 411.429 88 411.429Z" fill="#CADCD8" fill-rule="evenodd"/><path d="M202.965 301.548 317.931 301.548 317.931 411.429 202.965 411.429Z" fill="#CADCD8" fill-rule="evenodd"/><path d="M317.931 301.548 432.896 301.548 432.896 411.429 317.931 411.429Z" fill="#CADCD8" fill-rule="evenodd"/><path d="M88 411.429 202.965 411.429 202.965 521.31 88 521.31Z" fill="#CADCD8" fill-rule="evenodd"/><path d="M202.965 411.429 317.931 411.429 317.931 521.31 202.965 521.31Z" fill="#CADCD8" fill-rule="evenodd"/><path d="M317.931 411.429 432.896 411.429 432.896 521.31 317.931 521.31Z" fill="#CADCD8" fill-rule="evenodd"/><path d="M202.965 191 202.965 521.976" stroke="#000000" stroke-width="1.33333" stroke-linejoin="round" stroke-miterlimit="10" fill="none" fill-rule="evenodd"/><path d="M317.931 191 317.931 521.976" stroke="#000000" stroke-width="1.33333" stroke-linejoin="round" stroke-miterlimit="10" fill="none" fill-rule="evenodd"/><path d="M87.3333 301.548 433.563 301.548" stroke="#000000" stroke-width="1.33333" stroke-linejoin="round" stroke-miterlimit="10" fill="none" fill-rule="evenodd"/><path d="M87.3333 411.429 433.563 411.429" stroke="#000000" stroke-width="1.33333" stroke-linejoin="round" stroke-miterlimit="10" fill="none" fill-rule="evenodd"/><path d="M88 191 88 521.976" stroke="#000000" stroke-width="1.33333" stroke-linejoin="round" stroke-miterlimit="10" fill="none" fill-rule="evenodd"/><path d="M432.896 191 432.896 521.976" stroke="#000000" stroke-width="1.33333" stroke-linejoin="round" stroke-miterlimit="10" fill="none" fill-rule="evenodd"/><path d="M87.3333 191.667 433.563 191.667" stroke="#000000" stroke-width="1.33333" stroke-linejoin="round" stroke-miterlimit="10" fill="none" fill-rule="evenodd"/><path d="M87.3333 521.31 433.563 521.31" stroke="#000000" stroke-width="1.33333" stroke-linejoin="round" stroke-miterlimit="10" fill="none" fill-rule="evenodd"/><g clip-path="url(#clip10)"><text font-family="Calibri,Calibri_MSFontService,sans-serif" font-weight="700" font-size="80" transform="translate(238.448 383)">X</text></g><g clip-path="url(#clip11)"><text font-family="Calibri,Calibri_MSFontService,sans-serif" font-weight="700" font-size="80" transform="translate(348.33 383)">O</text></g><path d="M88 191.667 202.965 191.667 202.965 301.548 88 301.548Z" fill="#CADCD8" fill-rule="evenodd"/><path d="M202.965 191.667 317.931 191.667 317.931 301.548 202.965 301.548Z" fill="#CADCD8" fill-rule="evenodd"/><path d="M317.931 191.667 432.896 191.667 432.896 301.548 317.931 301.548Z" fill="#CADCD8" fill-rule="evenodd"/><path d="M88 301.548 202.965 301.548 202.965 411.429 88 411.429Z" fill="#CADCD8" fill-rule="evenodd"/><path d="M202.965 301.548 317.931 301.548 317.931 411.429 202.965 411.429Z" fill="#CADCD8" fill-rule="evenodd"/><path d="M317.931 301.548 432.896 301.548 432.896 411.429 317.931 411.429Z" fill="#CADCD8" fill-rule="evenodd"/><path d="M88 411.429 202.965 411.429 202.965 521.31 88 521.31Z" fill="#CADCD8" fill-rule="evenodd"/><path d="M202.965 411.429 317.931 411.429 317.931 521.31 202.965 521.31Z" fill="#CADCD8" fill-rule="evenodd"/><path d="M317.931 411.429 432.896 411.429 432.896 521.31 317.931 521.31Z" fill="#CADCD8" fill-rule="evenodd"/><path d="M202.965 191 202.965 521.976" stroke="#000000" stroke-width="1.33333" stroke-linejoin="round" stroke-miterlimit="10" fill="none" fill-rule="evenodd"/><path d="M317.931 191 317.931 521.976" stroke="#000000" stroke-width="1.33333" stroke-linejoin="round" stroke-miterlimit="10" fill="none" fill-rule="evenodd"/><path d="M87.3333 301.548 433.563 301.548" stroke="#000000" stroke-width="1.33333" stroke-linejoin="round" stroke-miterlimit="10" fill="none" fill-rule="evenodd"/><path d="M87.3333 411.429 433.563 411.429" stroke="#000000" stroke-width="1.33333" stroke-linejoin="round" stroke-miterlimit="10" fill="none" fill-rule="evenodd"/><path d="M88 191 88 521.976" stroke="#000000" stroke-width="1.33333" stroke-linejoin="round" stroke-miterlimit="10" fill="none" fill-rule="evenodd"/><path d="M432.896 191 432.896 521.976" stroke="#000000" stroke-width="1.33333" stroke-linejoin="round" stroke-miterlimit="10" fill="none" fill-rule="evenodd"/><path d="M87.3333 191.667 433.563 191.667" stroke="#000000" stroke-width="1.33333" stroke-linejoin="round" stroke-miterlimit="10" fill="none" fill-rule="evenodd"/><path d="M87.3333 521.31 433.563 521.31" stroke="#000000" stroke-width="1.33333" stroke-linejoin="round" stroke-miterlimit="10" fill="none" fill-rule="evenodd"/><g clip-path="url(#clip12)"><text font-family="Calibri,Calibri_MSFontService,sans-serif" font-weight="700" font-size="80" transform="translate(238.448 383)">X</text></g><g clip-path="url(#clip13)"><text font-family="Calibri,Calibri_MSFontService,sans-serif" font-weight="700" font-size="80" transform="translate(348.33 383)">O</text></g></g></svg>