<svg width="1280" height="720" xmlns="http://www.w3.org/2000/svg" xmlns:xlink="http://www.w3.org/1999/xlink" overflow="hidden"><defs><clipPath id="clip0"><rect x="0" y="0" width="1280" height="720"/></clipPath></defs><g clip-path="url(#clip0)"><rect x="0" y="0" width="1280" height="720" fill="#FFFFFF"/><path d="M341.102 33.5001 465.898 33.5001C482.247 33.5001 495.5 50.0655 495.5 70.5 495.5 90.9346 482.247 107.5 465.898 107.5L341.102 107.5C324.753 107.5 311.5 90.9346 311.5 70.5 311.5 50.0655 324.753 33.5001 341.102 33.5001Z" stroke="#9E8241" stroke-width="1.33333" stroke-miterlimit="8" fill="#D8B25C" fill-rule="evenodd"/><text fill="#FFFFFF" font-family="Calibri,Calibri_MSFontService,sans-serif" font-weight="400" font-size="24" transform="translate(379.372 78)">Start</text><rect x="587.5" y="437.5" width="176" height="75" stroke="#6B859A" stroke-width="1.33333" stroke-miterlimit="8" fill="#94B6D2"/><text fill="#FFFFFF" font-family="Calibri,Calibri_MSFontService,sans-serif" font-weight="400" font-size="24" transform="translate(620.582 468)">Add<tspan font-size="24" x="44.6667" y="0">info</tspan><tspan font-size="24" x="87.6866" y="0">to </tspan><tspan font-size="24" x="25.3066" y="29">board</tspan></text><path d="M315.5 202 403.5 164.5 491.5 202 403.5 239.5Z" stroke="#6B859A" stroke-width="1.33333" stroke-miterlimit="8" fill="#94B6D2" fill-rule="evenodd"/><text fill="#FFFFFF" font-family="Calibri,Calibri_MSFontService,sans-serif" font-weight="400" font-size="24" transform="translate(375.135 210)">Turn<tspan font-size="24" x="43.8466" y="0">?</tspan></text><path d="M141.5 283.3 306.5 268.5 306.5 342.5 141.5 342.5Z" stroke="#6B859A" stroke-width="1.33333" stroke-miterlimit="8" fill="#94B6D2" fill-rule="evenodd"/><text fill="#FFFFFF" font-family="Calibri,Calibri_MSFontService,sans-serif" font-weight="400" font-size="24" transform="translate(153.829 320)">Insert<tspan font-size="24" x="61.8333" y="0">Row,Col</tspan></text><path d="M527.5 286 616 248.5 704.5 286 616 323.5Z" stroke="#6B859A" stroke-width="1.33333" stroke-miterlimit="8" fill="#94B6D2" fill-rule="evenodd"/><text fill="#FFFFFF" font-family="Calibri,Calibri_MSFontService,sans-serif" font-weight="400" font-size="24" transform="translate(591.219 279)">Can I <tspan font-size="24" x="1" y="29">win</tspan><tspan font-size="24" x="36.3333" y="29">?</tspan></text><path d="M720.5 351 808.5 313.5 896.5 351 808.5 388.5Z" stroke="#6B859A" stroke-width="1.33333" stroke-miterlimit="8" fill="#94B6D2" fill-rule="evenodd"/><text fill="#FFFFFF" font-family="Calibri,Calibri_MSFontService,sans-serif" font-weight="400" font-size="24" transform="translate(783.929 343)">Can I <tspan font-size="24" x="-1.08667" y="29">lose?</tspan></text><path d="M899.5 393C899.5 386.096 905.096 380.5 912 380.5L1064 380.5C1070.9 380.5 1076.5 386.096 1076.5 393L1076.5 443C1076.5 449.904 1070.9 455.5 1064 455.5L912 455.5C905.096 455.5 899.5 449.904 899.5 443Z" stroke="#6D6565" stroke-width="1.33333" stroke-miterlimit="8" fill="#968C8C" fill-rule="evenodd"/><text fill="#FFFFFF" font-family="Calibri,Calibri_MSFontService,sans-serif" font-weight="400" font-size="24" transform="translate(919.314 410)">Calculate<tspan font-size="24" x="94.6866" y="0">best</tspan><tspan font-size="24" x="15.24" y="29">movement</tspan></text><path d="M403.834 107.5 403.834 136.347 403.5 136.347 403.833 136.014 403.833 157.861 403.167 157.861 403.167 135.68 403.5 135.68 403.167 136.014 403.167 107.5ZM407.5 156.528 403.5 164.528 399.5 156.528Z" fill="#94B6D2"/><path d="M0-0.333333 91.5628-0.333333 91.5628 66.4338 90.8962 66.4338 90.8962 0 91.2295 0.333333 0 0.333333ZM95.2295 65.1005 91.2295 73.1005 87.2295 65.1005Z" fill="#94B6D2" transform="matrix(-1 1.22465e-16 1.22465e-16 1 314.73 202.5)"/><path d="M491.5 202.167 616.586 202.167 616.586 242.083 615.92 242.083 615.92 202.5 616.253 202.833 491.5 202.833ZM620.253 240.75 616.253 248.75 612.253 240.75Z" fill="#94B6D2"/><path d="M527.5 286.833 453.58 286.833 453.913 286.5 453.913 475.626 453.58 475.293 580.007 475.293 580.007 475.96 453.246 475.96 453.246 286.167 527.5 286.167ZM578.674 471.626 586.674 475.626 578.674 479.626Z" fill="#94B6D2"/><path d="M704.5 286.167 809.467 286.167 809.467 307.064 808.8 307.064 808.8 286.5 809.134 286.833 704.5 286.833ZM813.134 305.73 809.134 313.73 805.134 305.73Z" fill="#94B6D2"/><path d="M0-0.333333 45.7931-0.333333 45.7931 80.3669 45.1264 80.3669 45.1264 0 45.4597 0.333333 0 0.333333ZM49.4597 79.0336 45.4597 87.0336 41.4597 79.0336Z" fill="#94B6D2" transform="matrix(-1 1.22465e-16 1.22465e-16 1 720.96 350.5)"/><path d="M896.5 350.167 988.108 350.167 988.108 373.399 987.442 373.399 987.442 350.5 987.775 350.833 896.5 350.833ZM991.775 372.066 987.775 380.066 983.775 372.066Z" fill="#94B6D2"/><path d="M988.641 455.5 988.641 475.87 770.167 475.87 770.167 475.204 988.308 475.204 987.975 475.537 987.975 455.5ZM771.5 479.537 763.5 475.537 771.5 471.537Z" fill="#94B6D2"/><path d="M0-0.333333 132.664-0.333333 132.664 356.563 131.997 356.563 131.997 0 132.33 0.333333 0 0.333333ZM136.33 355.23 132.33 363.23 128.33 355.23Z" fill="#94B6D2" transform="matrix(1.83697e-16 1 1 -1.83697e-16 223.5 342.5)"/><path d="M587.5 585.5 616.833 552.5 734.167 552.5C750.367 552.5 763.5 567.275 763.5 585.5 763.5 603.725 750.367 618.5 734.167 618.5L616.833 618.5Z" stroke="#6B859A" stroke-width="1.33333" stroke-miterlimit="8" fill="#94B6D2" fill-rule="evenodd"/><text fill="#FFFFFF" font-family="Calibri,Calibri_MSFontService,sans-serif" font-weight="400" font-size="24" transform="translate(639.782 579)">Display<tspan font-size="24" x="6.10669" y="29">board</tspan></text><path d="M803.5 656 891.5 618.5 979.5 656 891.5 693.5Z" stroke="#6B859A" stroke-width="1.33333" stroke-miterlimit="8" fill="#94B6D2" fill-rule="evenodd"/><text fill="#FFFFFF" font-family="Calibri,Calibri_MSFontService,sans-serif" font-weight="400" font-size="24" transform="translate(866.853 664)">En<tspan font-size="24" x="24.3333" y="0">d</tspan><tspan font-size="24" x="37" y="0">?</tspan></text><path d="M763.5 585.167 892.054 585.167 892.054 611.971 891.387 611.971 891.387 585.5 891.72 585.833 763.5 585.833ZM895.72 610.638 891.72 618.638 887.72 610.638Z" fill="#94B6D2"/><path d="M979.867 655.616 1118.36 655.616 1118.03 655.949 1118.03 140.498 1118.36 140.831 403.5 140.831 403.833 140.498 403.833 157.833 403.167 157.833 403.167 140.165 1118.7 140.165 1118.7 656.282 979.867 656.282ZM407.5 156.5 403.5 164.5 399.5 156.5Z" fill="#94B6D2"/><path d="M675.833 512.5 675.833 532.87 675.5 532.87 675.833 532.537 675.833 545.907 675.167 545.907 675.167 532.203 675.5 532.203 675.167 532.537 675.167 512.5ZM679.5 544.573 675.5 552.573 671.5 544.573Z" fill="#94B6D2"/><path d="M341.102 618.5 465.898 618.5C482.247 618.5 495.5 635.289 495.5 656 495.5 676.711 482.247 693.5 465.898 693.5L341.102 693.5C324.753 693.5 311.5 676.711 311.5 656 311.5 635.289 324.753 618.5 341.102 618.5Z" stroke="#9E8241" stroke-width="1.33333" stroke-miterlimit="8" fill="#D8B25C" fill-rule="evenodd"/><text fill="#FFFFFF" font-family="Calibri,Calibri_MSFontService,sans-serif" font-weight="400" font-size="24" transform="translate(384.142 664)">End</text><path d="M803.684 656.833 649.258 656.833 649.258 656.5 649.592 656.833 502.167 656.833 502.167 656.167 649.925 656.167 649.925 656.5 649.592 656.167 803.684 656.167ZM503.5 660.5 495.5 656.5 503.5 652.5Z" fill="#94B6D2"/><text font-family="Calibri,Calibri_MSFontService,sans-serif" font-weight="400" font-size="24" transform="translate(242.174 197)">Human<tspan font-size="24" x="251.741" y="0">Computer</tspan><tspan font-size="24" x="250.995" y="83">Yes</tspan><tspan font-size="24" x="461.882" y="82">No</tspan><tspan font-size="24" x="441.677" y="148">Yes</tspan><tspan font-size="24" x="652.564" y="147">No</tspan><tspan font-size="24" x="525.934" y="453">Yes</tspan><tspan font-size="24" x="736.821" y="452">No</tspan></text></g></svg>