<?xml version="1.0" encoding="UTF-8" standalone="no"?>
<svg
   xmlns:dc="http://purl.org/dc/elements/1.1/"
   xmlns:cc="http://creativecommons.org/ns#"
   xmlns:rdf="http://www.w3.org/1999/02/22-rdf-syntax-ns#"
   xmlns:svg="http://www.w3.org/2000/svg"
   xmlns="http://www.w3.org/2000/svg"
   xmlns:sodipodi="http://sodipodi.sourceforge.net/DTD/sodipodi-0.dtd"
   xmlns:inkscape="http://www.inkscape.org/namespaces/inkscape"
   sodipodi:docname="favicon.svg"
   inkscape:version="1.0 (4035a4fb49, 2020-05-01)"
   id="svg8"
   version="1.1"
   viewBox="0 0 396.87499 396.875"
   height="1500"
   width="1500">
  <defs
     id="defs2" />
  <sodipodi:namedview
     inkscape:pagecheckerboard="false"
     units="px"
     inkscape:guide-bbox="true"
     showguides="true"
     inkscape:snap-object-midpoints="true"
     inkscape:snap-midpoints="false"
     inkscape:object-paths="true"
     inkscape:snap-global="true"
     inkscape:window-maximized="1"
     inkscape:window-y="-8"
     inkscape:window-x="-8"
     inkscape:window-height="1017"
     inkscape:window-width="1920"
     showborder="true"
     showgrid="false"
     inkscape:document-rotation="0"
     inkscape:current-layer="layer2"
     inkscape:document-units="px"
     inkscape:cy="787.09899"
     inkscape:cx="521.78853"
     inkscape:zoom="0.175"
     inkscape:pageshadow="2"
     inkscape:pageopacity="0.0"
     borderopacity="1.0"
     bordercolor="#666666"
     pagecolor="#ffffff"
     id="base">
    <sodipodi:guide
       id="guide3368"
       orientation="0,-1"
       position="-836.08332,396.875" />
    <sodipodi:guide
       id="guide3370"
       orientation="1,0"
       position="0.37797619,703.32441" />
  </sodipodi:namedview>
  <metadata
     id="metadata5">
    <rdf:RDF>
      <cc:Work
         rdf:about="">
        <dc:format>image/svg+xml</dc:format>
        <dc:type
           rdf:resource="http://purl.org/dc/dcmitype/StillImage" />
        <dc:title></dc:title>
      </cc:Work>
    </rdf:RDF>
  </metadata>
  <g
     style="display:inline;opacity:1"
     inkscape:label="Layer 2"
     id="layer2"
     inkscape:groupmode="layer">
    <path
       d="m 190.21828,25.10326 c -26.898,34.76474 -52.48717,70.59841 -75.37458,108.14124 -13.06972,21.54211 -25.205574,43.73095 -34.854174,67.03552 -4.66986,11.50347 -8.62749,23.31064 -10.75329,35.56661 -1.15412,7.03864 -1.31086,14.19595 -0.75539,21.30723 1.66268,23.79594 9.99484,47.14429 23.99841,66.5662 14.197174,19.79371 34.061454,35.6591 56.701924,44.84844 20.2013,8.26177 42.44368,11.29749 64.10141,8.78919 17.87316,-2.01962 35.44428,-7.80006 50.94052,-16.96202 18.99937,-11.1378 35.11752,-27.06792 46.32684,-46.00592 12.13258,-20.41909 18.58141,-44.16677 18.13205,-67.91284 -0.29101,-9.93612 -2.82363,-19.67734 -6.02331,-29.05433 -7.31058,-21.04312 -17.83499,-40.81115 -29.20432,-59.9205 C 274.12195,125.07083 251.94264,94.43582 228.85525,64.59509 217.36561,49.80471 205.51456,35.29138 193.43508,20.98607 c -1.07227,1.3724 -2.14453,2.7448 -3.2168,4.11719 z"
       style="display:inline;fill:#f8c537;fill-opacity:1;fill-rule:evenodd;stroke:#443226;stroke-width:10.5833;stroke-miterlimit:4;stroke-dasharray:none;stroke-opacity:1"
       id="path834" />
  </g>
  <g
     style="display:none"
     inkscape:label="Layer 5"
     id="layer5"
     inkscape:groupmode="layer">
    <path
       d="m 315.3134,236.86667 c 0.14976,1.05715 0.30283,2.35682 0.45888,3.94239 0.16382,1.66434 0.33064,3.59917 0.4992,5.76089 0.068,0.87176 0.13821,2.15165 0.2067,3.09439 0.0241,-4.00937 -0.27212,-8.02697 -0.9927,-11.94294 -0.0512,-0.28641 -0.11792,-0.56904 -0.17208,-0.85473 z"
       style="display:inline;fill:#ffd42a;fill-opacity:1;fill-rule:evenodd;stroke-width:0.264583"
       id="path1033" />
    <path
       id="path1288"
       d="m 264.98041,257.23127 h -45.46267 l -24.59148,24.59148 h -52.61948 l -43.783704,43.7837"
       style="fill:none;stroke:#000000;stroke-width:0;stroke-linecap:butt;stroke-linejoin:miter;stroke-miterlimit:4;stroke-dasharray:none;stroke-opacity:1" />
    <path
       id="path1290"
       d="m 187.17812,240.13139 h 30.90768 l 14.61398,-14.61398 92.49358,-1e-5"
       style="fill:none;stroke:#000000;stroke-width:0;stroke-linecap:butt;stroke-linejoin:miter;stroke-miterlimit:4;stroke-dasharray:none;stroke-opacity:1" />
    <path
       id="path1294"
       d="M 197.80686,189.0667 H 121.42981 L 93.892946,216.60356 H 74.029076"
       style="fill:none;stroke:#000000;stroke-width:0;stroke-linecap:butt;stroke-linejoin:miter;stroke-miterlimit:4;stroke-dasharray:none;stroke-opacity:1" />
    <path
       style="fill:none;stroke:#443226;stroke-width:8.73125;stroke-linecap:butt;stroke-linejoin:miter;stroke-miterlimit:4;stroke-dasharray:none;stroke-opacity:1"
       d="m 195.67836,324.94564 25.87956,-25.87956 v -75.62876 h 103.03185"
       id="path61" />
    <path
       style="fill:none;stroke:#443226;stroke-width:8.73125;stroke-linecap:butt;stroke-linejoin:miter;stroke-miterlimit:4;stroke-dasharray:none;stroke-opacity:1"
       d="m 187.17812,240.13139 v 41.69137 l -68.83393,68.83392"
       id="path63" />
    <path
       style="fill:none;stroke:#443226;stroke-width:8.73125;stroke-linecap:butt;stroke-linejoin:miter;stroke-miterlimit:4;stroke-dasharray:none;stroke-opacity:1"
       d="m 138.00052,220.88798 v 37.14721 l -53.361686,53.36169"
       id="path73" />
    <path
       style="fill:none;stroke:#443226;stroke-width:8.73125;stroke-linecap:butt;stroke-linejoin:miter;stroke-miterlimit:4;stroke-dasharray:none;stroke-opacity:1"
       d="m 264.98042,257.23127 v 60.91471 l 23.72976,23.72976"
       id="path75" />
    <path
       style="fill:none;stroke:#443226;stroke-width:8.73125;stroke-linecap:butt;stroke-linejoin:miter;stroke-miterlimit:4;stroke-dasharray:none;stroke-opacity:1"
       d="M 71.698632,225.96447 135.60745,189.0667 h 62.19941"
       id="path79" />
    <circle
       r="13.455475"
       cy="189.0667"
       cx="197.80685"
       id="path1168"
       style="display:inline;fill:#bf4e30;fill-opacity:1;stroke:#443226;stroke-width:8.73125;stroke-miterlimit:4;stroke-dasharray:none;stroke-opacity:1" />
    <circle
       style="display:inline;fill:#bf4e30;fill-opacity:1;stroke:#443226;stroke-width:8.73125;stroke-miterlimit:4;stroke-dasharray:none;stroke-opacity:1"
       id="path1168-2"
       cx="138.00053"
       cy="220.88799"
       r="13.455475" />
    <circle
       r="13.455475"
       cy="240.13139"
       cx="187.17812"
       id="path1168-2-6"
       style="display:inline;fill:#bf4e30;fill-opacity:1;stroke:#443226;stroke-width:8.73125;stroke-miterlimit:4;stroke-dasharray:none;stroke-opacity:1" />
    <circle
       style="display:inline;fill:#bf4e30;fill-opacity:1;stroke:#443226;stroke-width:8.73125;stroke-miterlimit:4;stroke-dasharray:none;stroke-opacity:1"
       id="path1168-2-6-7"
       cx="264.98041"
       cy="257.23126"
       r="13.455475" />
    <circle
       r="13.455475"
       cy="324.94565"
       cx="195.67836"
       id="path1168-2-6-7-8"
       style="display:inline;fill:#bf4e30;fill-opacity:1;stroke:#443226;stroke-width:8.73125;stroke-miterlimit:4;stroke-dasharray:none;stroke-opacity:1" />
  </g>
</svg>
