<svg width="1280" height="720" xmlns="http://www.w3.org/2000/svg" xmlns:xlink="http://www.w3.org/1999/xlink" overflow="hidden"><defs><clipPath id="clip0"><rect x="0" y="0" width="1280" height="720"/></clipPath><clipPath id="clip1"><rect x="840" y="-136" width="77" height="404"/></clipPath><clipPath id="clip2"><rect x="916" y="-136" width="76" height="404"/></clipPath><clipPath id="clip3"><rect x="991" y="-136" width="76" height="404"/></clipPath><clipPath id="clip4"><rect x="1066" y="-136" width="76" height="404"/></clipPath><clipPath id="clip5"><rect x="1141" y="-136" width="77" height="404"/></clipPath><clipPath id="clip6"><rect x="840" y="-66" width="77" height="404"/></clipPath><clipPath id="clip7"><rect x="916" y="-66" width="76" height="404"/></clipPath><clipPath id="clip8"><rect x="991" y="-66" width="76" height="404"/></clipPath><clipPath id="clip9"><rect x="1066" y="-66" width="76" height="404"/></clipPath><clipPath id="clip10"><rect x="1141" y="-66" width="77" height="404"/></clipPath><clipPath id="clip11"><rect x="840" y="5" width="77" height="404"/></clipPath><clipPath id="clip12"><rect x="916" y="5" width="76" height="404"/></clipPath><clipPath id="clip13"><rect x="991" y="5" width="76" height="404"/></clipPath><clipPath id="clip14"><rect x="1066" y="5" width="76" height="404"/></clipPath><clipPath id="clip15"><rect x="1141" y="5" width="77" height="404"/></clipPath><clipPath id="clip16"><rect x="840" y="75" width="77" height="404"/></clipPath><clipPath id="clip17"><rect x="916" y="75" width="76" height="404"/></clipPath><clipPath id="clip18"><rect x="991" y="75" width="76" height="404"/></clipPath><clipPath id="clip19"><rect x="1066" y="75" width="76" height="404"/></clipPath><clipPath id="clip20"><rect x="1141" y="75" width="77" height="404"/></clipPath><clipPath id="clip21"><rect x="840" y="146" width="77" height="404"/></clipPath><clipPath id="clip22"><rect x="916" y="146" width="76" height="404"/></clipPath><clipPath id="clip23"><rect x="991" y="146" width="76" height="404"/></clipPath><clipPath id="clip24"><rect x="1066" y="146" width="76" height="404"/></clipPath><clipPath id="clip25"><rect x="1141" y="146" width="77" height="404"/></clipPath><clipPath id="clip26"><rect x="262" y="-59" width="80" height="404"/></clipPath><clipPath id="clip27"><rect x="341" y="18" width="79" height="405"/></clipPath><clipPath id="clip28"><rect x="266" y="265" width="80" height="404"/></clipPath><clipPath id="clip29"><rect x="345" y="265" width="80" height="404"/></clipPath><clipPath id="clip30"><rect x="424" y="265" width="79" height="404"/></clipPath><clipPath id="clip31"><rect x="266" y="343" width="80" height="404"/></clipPath><clipPath id="clip32"><rect x="345" y="343" width="80" height="404"/></clipPath><clipPath id="clip33"><rect x="424" y="343" width="79" height="404"/></clipPath><clipPath id="clip34"><rect x="266" y="420" width="80" height="404"/></clipPath><clipPath id="clip35"><rect x="345" y="420" width="80" height="404"/></clipPath><clipPath id="clip36"><rect x="424" y="420" width="79" height="404"/></clipPath><clipPath id="clip37"><rect x="910" y="265" width="80" height="404"/></clipPath><clipPath id="clip38"><rect x="910" y="265" width="80" height="404"/></clipPath><clipPath id="clip39"><rect x="989" y="265" width="80" height="404"/></clipPath><clipPath id="clip40"><rect x="1068" y="265" width="80" height="404"/></clipPath><clipPath id="clip41"><rect x="910" y="343" width="80" height="404"/></clipPath><clipPath id="clip42"><rect x="989" y="343" width="80" height="404"/></clipPath><clipPath id="clip43"><rect x="989" y="343" width="80" height="404"/></clipPath><clipPath id="clip44"><rect x="1068" y="343" width="80" height="404"/></clipPath><clipPath id="clip45"><rect x="910" y="420" width="80" height="404"/></clipPath><clipPath id="clip46"><rect x="989" y="420" width="80" height="404"/></clipPath><clipPath id="clip47"><rect x="1068" y="420" width="80" height="404"/></clipPath></defs><g clip-path="url(#clip0)"><rect x="0" y="0" width="1280" height="720" fill="#FFFFFF"/><path d="M840.72 30.4667 916.04 30.4667 916.04 100.973 840.72 100.973Z" fill="#C9CDB3" fill-rule="evenodd"/><path d="M916.04 30.4667 991.36 30.4667 991.36 100.973 916.04 100.973Z" fill="#F1CCB5" fill-rule="evenodd"/><path d="M991.36 30.4667 1066.68 30.4667 1066.68 100.973 991.36 100.973Z" fill="#BFD3E4" fill-rule="evenodd"/><path d="M1066.68 30.4667 1142 30.4667 1142 100.973 1066.68 100.973Z" fill="#B29D94" fill-rule="evenodd"/><path d="M1142 30.4667 1217.32 30.4667 1217.32 100.973 1142 100.973Z" fill="#E0CBA3" fill-rule="evenodd"/><path d="M840.72 100.973 916.04 100.973 916.04 171.48 840.72 171.48Z" fill="#F8E6DA" fill-rule="evenodd"/><path d="M916.04 100.973 991.36 100.973 991.36 171.48 916.04 171.48Z" fill="#CADCD8" fill-rule="evenodd"/><path d="M991.36 100.973 1066.68 100.973 1066.68 171.48 991.36 171.48Z" fill="#CADCD8" fill-rule="evenodd"/><path d="M1066.68 100.973 1142 100.973 1142 171.48 1066.68 171.48Z" fill="#CADCD8" fill-rule="evenodd"/><path d="M1142 100.973 1217.32 100.973 1217.32 171.48 1142 171.48Z" fill="#F8E6DA" fill-rule="evenodd"/><path d="M840.72 171.48 916.04 171.48 916.04 241.987 840.72 241.987Z" fill="#EAF0F6" fill-rule="evenodd"/><path d="M916.04 171.48 991.36 171.48 991.36 241.987 916.04 241.987Z" fill="#CADCD8" fill-rule="evenodd"/><path d="M991.36 171.48 1066.68 171.48 1066.68 241.987 991.36 241.987Z" fill="#CADCD8" fill-rule="evenodd"/><path d="M1066.68 171.48 1142 171.48 1142 241.987 1066.68 241.987Z" fill="#CADCD8" fill-rule="evenodd"/><path d="M1142 171.48 1217.32 171.48 1217.32 241.987 1142 241.987Z" fill="#EAF0F6" fill-rule="evenodd"/><path d="M840.72 241.987 916.04 241.987 916.04 312.493 840.72 312.493Z" fill="#E5DEDB" fill-rule="evenodd"/><path d="M916.04 241.987 991.36 241.987 991.36 312.493 916.04 312.493Z" fill="#CADCD8" fill-rule="evenodd"/><path d="M991.36 241.987 1066.68 241.987 1066.68 312.493 991.36 312.493Z" fill="#CADCD8" fill-rule="evenodd"/><path d="M1066.68 241.987 1142 241.987 1142 312.493 1066.68 312.493Z" fill="#CADCD8" fill-rule="evenodd"/><path d="M1142 241.987 1217.32 241.987 1217.32 312.493 1142 312.493Z" fill="#E5DEDB" fill-rule="evenodd"/><path d="M840.72 312.493 916.04 312.493 916.04 383 840.72 383Z" fill="#E0CBA3" fill-rule="evenodd"/><path d="M916.04 312.493 991.36 312.493 991.36 383 916.04 383Z" fill="#F1CCB5" fill-rule="evenodd"/><path d="M991.36 312.493 1066.68 312.493 1066.68 383 991.36 383Z" fill="#BFD3E4" fill-rule="evenodd"/><path d="M1066.68 312.493 1142 312.493 1142 383 1066.68 383Z" fill="#B29D94" fill-rule="evenodd"/><path d="M1142 312.493 1217.32 312.493 1217.32 383 1142 383Z" fill="#C9CDB3" fill-rule="evenodd"/><path d="M916.04 29.8 916.04 100.973" stroke="#FFFFFF" stroke-width="1.33333" stroke-linejoin="round" stroke-miterlimit="10" fill="none" fill-rule="evenodd"/><path d="M916.04 100.973 916.04 312.493" stroke="#000000" stroke-width="1.33333" stroke-linejoin="round" stroke-miterlimit="10" fill="none" fill-rule="evenodd"/><path d="M916.04 312.493 916.04 383.667" stroke="#FFFFFF" stroke-width="1.33333" stroke-linejoin="round" stroke-miterlimit="10" fill="none" fill-rule="evenodd"/><path d="M991.36 29.8 991.36 100.973" stroke="#FFFFFF" stroke-width="1.33333" stroke-linejoin="round" stroke-miterlimit="10" fill="none" fill-rule="evenodd"/><path d="M991.36 100.973 991.36 312.493" stroke="#000000" stroke-width="1.33333" stroke-linejoin="round" stroke-miterlimit="10" fill="none" fill-rule="evenodd"/><path d="M991.36 312.493 991.36 383.667" stroke="#FFFFFF" stroke-width="1.33333" stroke-linejoin="round" stroke-miterlimit="10" fill="none" fill-rule="evenodd"/><path d="M1066.68 29.8 1066.68 100.973" stroke="#FFFFFF" stroke-width="1.33333" stroke-linejoin="round" stroke-miterlimit="10" fill="none" fill-rule="evenodd"/><path d="M1066.68 100.973 1066.68 312.493" stroke="#000000" stroke-width="1.33333" stroke-linejoin="round" stroke-miterlimit="10" fill="none" fill-rule="evenodd"/><path d="M1066.68 312.493 1066.68 383.667" stroke="#FFFFFF" stroke-width="1.33333" stroke-linejoin="round" stroke-miterlimit="10" fill="none" fill-rule="evenodd"/><path d="M1142 29.8 1142 100.973" stroke="#FFFFFF" stroke-width="1.33333" stroke-linejoin="round" stroke-miterlimit="10" fill="none" fill-rule="evenodd"/><path d="M1142 100.973 1142 312.493" stroke="#000000" stroke-width="1.33333" stroke-linejoin="round" stroke-miterlimit="10" fill="none" fill-rule="evenodd"/><path d="M1142 312.493 1142 383.667" stroke="#FFFFFF" stroke-width="1.33333" stroke-linejoin="round" stroke-miterlimit="10" fill="none" fill-rule="evenodd"/><path d="M840.053 100.973 916.706 100.973" stroke="#FFFFFF" stroke-width="4" stroke-linejoin="round" stroke-miterlimit="10" fill="none" fill-rule="evenodd"/><path d="M916.706 100.973 1141.33 100.973" stroke="#000000" stroke-width="1.33333" stroke-linejoin="round" stroke-miterlimit="10" fill="none" fill-rule="evenodd"/><path d="M1141.33 100.973 1217.99 100.973" stroke="#FFFFFF" stroke-width="4" stroke-linejoin="round" stroke-miterlimit="10" fill="none" fill-rule="evenodd"/><path d="M840.053 171.48 916.04 171.48" stroke="#FFFFFF" stroke-width="1.33333" stroke-linejoin="round" stroke-miterlimit="10" fill="none" fill-rule="evenodd"/><path d="M916.04 171.48 1142 171.48" stroke="#000000" stroke-width="1.33333" stroke-linejoin="round" stroke-miterlimit="10" fill="none" fill-rule="evenodd"/><path d="M1142 171.48 1217.99 171.48" stroke="#FFFFFF" stroke-width="1.33333" stroke-linejoin="round" stroke-miterlimit="10" fill="none" fill-rule="evenodd"/><path d="M840.053 241.987 916.04 241.987" stroke="#FFFFFF" stroke-width="1.33333" stroke-linejoin="round" stroke-miterlimit="10" fill="none" fill-rule="evenodd"/><path d="M916.04 241.987 1142 241.987" stroke="#000000" stroke-width="1.33333" stroke-linejoin="round" stroke-miterlimit="10" fill="none" fill-rule="evenodd"/><path d="M1142 241.987 1217.99 241.987" stroke="#FFFFFF" stroke-width="1.33333" stroke-linejoin="round" stroke-miterlimit="10" fill="none" fill-rule="evenodd"/><path d="M840.053 312.493 916.04 312.493" stroke="#FFFFFF" stroke-width="1.33333" stroke-linejoin="round" stroke-miterlimit="10" fill="none" fill-rule="evenodd"/><path d="M916.04 312.493 1142 312.493" stroke="#000000" stroke-width="1.33333" stroke-linejoin="round" stroke-miterlimit="10" fill="none" fill-rule="evenodd"/><path d="M1142 312.493 1217.99 312.493" stroke="#FFFFFF" stroke-width="1.33333" stroke-linejoin="round" stroke-miterlimit="10" fill="none" fill-rule="evenodd"/><path d="M840.72 29.8 840.72 383.667" stroke="#FFFFFF" stroke-width="1.33333" stroke-linejoin="round" stroke-miterlimit="10" fill="none" fill-rule="evenodd"/><path d="M1217.32 29.8 1217.32 383.667" stroke="#FFFFFF" stroke-width="1.33333" stroke-linejoin="round" stroke-miterlimit="10" fill="none" fill-rule="evenodd"/><path d="M840.053 30.4667 1217.99 30.4667" stroke="#FFFFFF" stroke-width="1.33333" stroke-linejoin="round" stroke-miterlimit="10" fill="none" fill-rule="evenodd"/><path d="M840.053 383 1217.99 383" stroke="#FFFFFF" stroke-width="1.33333" stroke-linejoin="round" stroke-miterlimit="10" fill="none" fill-rule="evenodd"/><g clip-path="url(#clip1)"><text fill="#775F55" font-family="Calibri,Calibri_MSFontService,sans-serif" font-weight="700" font-size="48" transform="translate(854.88 82)">S7</text></g><g clip-path="url(#clip2)"><text fill="#775F55" font-family="Calibri,Calibri_MSFontService,sans-serif" font-weight="700" font-size="48" transform="translate(930.2 82)">S4</text></g><g clip-path="url(#clip3)"><text fill="#775F55" font-family="Calibri,Calibri_MSFontService,sans-serif" font-weight="700" font-size="48" transform="translate(1005.52 82)">S5</text></g><g clip-path="url(#clip4)"><text fill="#775F55" font-family="Calibri,Calibri_MSFontService,sans-serif" font-weight="700" font-size="48" transform="translate(1080.84 82)">S6</text></g><g clip-path="url(#clip5)"><text fill="#775F55" font-family="Calibri,Calibri_MSFontService,sans-serif" font-weight="700" font-size="48" transform="translate(1155.33 82)">12</text></g><g clip-path="url(#clip6)"><text fill="#775F55" font-family="Calibri,Calibri_MSFontService,sans-serif" font-weight="700" font-size="48" transform="translate(854.88 152)">S1</text></g><g clip-path="url(#clip7)"><text font-family="Calibri,Calibri_MSFontService,sans-serif" font-weight="700" font-size="48" transform="translate(941.533 152)">1</text></g><g clip-path="url(#clip8)"><text fill="#A6A6A6" font-family="Calibri,Calibri_MSFontService,sans-serif" font-weight="700" font-size="48" transform="translate(1016.85 152)">4</text></g><g clip-path="url(#clip9)"><text fill="#A6A6A6" font-family="Calibri,Calibri_MSFontService,sans-serif" font-weight="700" font-size="48" transform="translate(1092.17 152)">4</text></g><g clip-path="url(#clip10)"><text fill="#775F55" font-family="Calibri,Calibri_MSFontService,sans-serif" font-weight="700" font-size="48" transform="translate(1167.49 152)">9</text></g><g clip-path="url(#clip11)"><text fill="#775F55" font-family="Calibri,Calibri_MSFontService,sans-serif" font-weight="700" font-size="48" transform="translate(854.88 223)">S2</text></g><g clip-path="url(#clip12)"><text fill="#A6A6A6" font-family="Calibri,Calibri_MSFontService,sans-serif" font-weight="700" font-size="48" transform="translate(941.533 223)">4</text></g><g clip-path="url(#clip13)"><text font-family="Calibri,Calibri_MSFontService,sans-serif" font-weight="700" font-size="48" transform="translate(1016.85 223)">4</text></g><g clip-path="url(#clip14)"><text fill="#A6A6A6" font-family="Calibri,Calibri_MSFontService,sans-serif" font-weight="700" font-size="48" transform="translate(1092.17 223)">4</text></g><g clip-path="url(#clip15)"><text fill="#775F55" font-family="Calibri,Calibri_MSFontService,sans-serif" font-weight="700" font-size="48" transform="translate(1155.33 223)">12</text></g><g clip-path="url(#clip16)"><text fill="#775F55" font-family="Calibri,Calibri_MSFontService,sans-serif" font-weight="700" font-size="48" transform="translate(854.88 293)">S3</text></g><g clip-path="url(#clip17)"><text fill="#A6A6A6" font-family="Calibri,Calibri_MSFontService,sans-serif" font-weight="700" font-size="48" transform="translate(941.533 293)">4</text></g><g clip-path="url(#clip18)"><text fill="#A6A6A6" font-family="Calibri,Calibri_MSFontService,sans-serif" font-weight="700" font-size="48" transform="translate(1016.85 293)">4</text></g><g clip-path="url(#clip19)"><text fill="#A6A6A6" font-family="Calibri,Calibri_MSFontService,sans-serif" font-weight="700" font-size="48" transform="translate(1092.17 293)">4</text></g><g clip-path="url(#clip20)"><text fill="#775F55" font-family="Calibri,Calibri_MSFontService,sans-serif" font-weight="700" font-size="48" transform="translate(1155.33 293)">12</text></g><g clip-path="url(#clip21)"><text fill="#775F55" font-family="Calibri,Calibri_MSFontService,sans-serif" font-weight="700" font-size="48" transform="translate(854.88 364)">S8</text></g><g clip-path="url(#clip22)"><text fill="#775F55" font-family="Calibri,Calibri_MSFontService,sans-serif" font-weight="700" font-size="48" transform="translate(941.533 364)">9</text></g><g clip-path="url(#clip23)"><text fill="#775F55" font-family="Calibri,Calibri_MSFontService,sans-serif" font-weight="700" font-size="48" transform="translate(1004.69 364)">12</text></g><g clip-path="url(#clip24)"><text fill="#775F55" font-family="Calibri,Calibri_MSFontService,sans-serif" font-weight="700" font-size="48" transform="translate(1080.01 364)">12</text></g><g clip-path="url(#clip25)"><text fill="#775F55" font-family="Calibri,Calibri_MSFontService,sans-serif" font-weight="700" font-size="48" transform="translate(1167.49 364)">9</text></g><path d="M262.18 104.233 341.007 104.233 341.007 181.784 262.18 181.784Z" fill="#CADCD8" fill-rule="evenodd"/><path d="M341.007 104.233 419.833 104.233 419.833 181.784 341.007 181.784Z" fill="#CADCD8" fill-rule="evenodd"/><path d="M419.833 104.233 498.66 104.233 498.66 181.784 419.833 181.784Z" fill="#CADCD8" fill-rule="evenodd"/><path d="M262.18 181.784 341.007 181.784 341.007 259.335 262.18 259.335Z" fill="#CADCD8" fill-rule="evenodd"/><path d="M341.007 181.784 419.833 181.784 419.833 259.335 341.007 259.335Z" fill="#CADCD8" fill-rule="evenodd"/><path d="M419.833 181.784 498.66 181.784 498.66 259.335 419.833 259.335Z" fill="#CADCD8" fill-rule="evenodd"/><path d="M262.18 259.335 341.007 259.335 341.007 336.886 262.18 336.886Z" fill="#CADCD8" fill-rule="evenodd"/><path d="M341.007 259.335 419.833 259.335 419.833 336.886 341.007 336.886Z" fill="#CADCD8" fill-rule="evenodd"/><path d="M419.833 259.335 498.66 259.335 498.66 336.886 419.833 336.886Z" fill="#CADCD8" fill-rule="evenodd"/><path d="M341.007 103.567 341.007 337.553" stroke="#000000" stroke-width="1.33333" stroke-linejoin="round" stroke-miterlimit="10" fill="none" fill-rule="evenodd"/><path d="M419.833 103.567 419.833 337.553" stroke="#000000" stroke-width="1.33333" stroke-linejoin="round" stroke-miterlimit="10" fill="none" fill-rule="evenodd"/><path d="M261.513 181.784 499.327 181.784" stroke="#000000" stroke-width="1.33333" stroke-linejoin="round" stroke-miterlimit="10" fill="none" fill-rule="evenodd"/><path d="M261.513 259.335 499.327 259.335" stroke="#000000" stroke-width="1.33333" stroke-linejoin="round" stroke-miterlimit="10" fill="none" fill-rule="evenodd"/><path d="M262.18 103.567 262.18 337.553" stroke="#000000" stroke-width="1.33333" stroke-linejoin="round" stroke-miterlimit="10" fill="none" fill-rule="evenodd"/><path d="M498.66 103.567 498.66 337.553" stroke="#000000" stroke-width="1.33333" stroke-linejoin="round" stroke-miterlimit="10" fill="none" fill-rule="evenodd"/><path d="M261.513 104.233 499.327 104.233" stroke="#000000" stroke-width="1.33333" stroke-linejoin="round" stroke-miterlimit="10" fill="none" fill-rule="evenodd"/><path d="M261.513 336.886 499.327 336.886" stroke="#000000" stroke-width="1.33333" stroke-linejoin="round" stroke-miterlimit="10" fill="none" fill-rule="evenodd"/><g clip-path="url(#clip26)"><text font-family="Calibri,Calibri_MSFontService,sans-serif" font-weight="700" font-size="48" transform="translate(285.343 159)">O</text></g><g clip-path="url(#clip27)"><text font-family="Calibri,Calibri_MSFontService,sans-serif" font-weight="700" font-size="48" transform="translate(367.17 237)">X</text></g><path d="M918 207 1141 207" stroke="#DD8047" stroke-width="2" stroke-miterlimit="8" fill="none" fill-rule="evenodd"/><path d="M918 275 1141 275" stroke="#DD8047" stroke-width="2" stroke-miterlimit="8" fill="none" fill-rule="evenodd"/><path d="M1030 104 1030 309" stroke="#DD8047" stroke-width="2" stroke-miterlimit="8" fill="none" fill-rule="evenodd"/><path d="M1109 104 1109 309" stroke="#DD8047" stroke-width="2" stroke-miterlimit="8" fill="none" fill-rule="evenodd"/><path d="M0 0 222.2 205" stroke="#DD8047" stroke-width="2" stroke-miterlimit="8" fill="none" fill-rule="evenodd" transform="matrix(-1 0 0 1 1140.2 104)"/><path d="M266.36 428.347 345.187 428.347 345.187 505.898 266.36 505.898Z" fill="#CADCD8" fill-rule="evenodd"/><path d="M345.187 428.347 424.014 428.347 424.014 505.898 345.187 505.898Z" fill="#CADCD8" fill-rule="evenodd"/><path d="M424.014 428.347 502.84 428.347 502.84 505.898 424.014 505.898Z" fill="#CADCD8" fill-rule="evenodd"/><path d="M266.36 505.898 345.187 505.898 345.187 583.449 266.36 583.449Z" fill="#CADCD8" fill-rule="evenodd"/><path d="M345.187 505.898 424.014 505.898 424.014 583.449 345.187 583.449Z" fill="#CADCD8" fill-rule="evenodd"/><path d="M424.014 505.898 502.84 505.898 502.84 583.449 424.014 583.449Z" fill="#CADCD8" fill-rule="evenodd"/><path d="M266.36 583.449 345.187 583.449 345.187 660 266.36 660Z" fill="#CADCD8" fill-rule="evenodd"/><path d="M345.187 583.449 424.014 583.449 424.014 660 345.187 660Z" fill="#CADCD8" fill-rule="evenodd"/><path d="M424.014 583.449 502.84 583.449 502.84 660 424.014 660Z" fill="#CADCD8" fill-rule="evenodd"/><path d="M345.187 427.68 345.187 660.667" stroke="#000000" stroke-width="1.33333" stroke-linejoin="round" stroke-miterlimit="10" fill="none" fill-rule="evenodd"/><path d="M424.014 427.68 424.014 660.667" stroke="#000000" stroke-width="1.33333" stroke-linejoin="round" stroke-miterlimit="10" fill="none" fill-rule="evenodd"/><path d="M265.694 505.898 503.507 505.898" stroke="#000000" stroke-width="1.33333" stroke-linejoin="round" stroke-miterlimit="10" fill="none" fill-rule="evenodd"/><path d="M265.694 583.449 503.507 583.449" stroke="#000000" stroke-width="1.33333" stroke-linejoin="round" stroke-miterlimit="10" fill="none" fill-rule="evenodd"/><path d="M266.36 427.68 266.36 660.667" stroke="#000000" stroke-width="1.33333" stroke-linejoin="round" stroke-miterlimit="10" fill="none" fill-rule="evenodd"/><path d="M502.84 427.68 502.84 660.667" stroke="#000000" stroke-width="1.33333" stroke-linejoin="round" stroke-miterlimit="10" fill="none" fill-rule="evenodd"/><path d="M265.694 428.347 503.507 428.347" stroke="#000000" stroke-width="1.33333" stroke-linejoin="round" stroke-miterlimit="10" fill="none" fill-rule="evenodd"/><path d="M265.694 660 503.507 660" stroke="#000000" stroke-width="1.33333" stroke-linejoin="round" stroke-miterlimit="10" fill="none" fill-rule="evenodd"/><g clip-path="url(#clip28)"><text fill="#FF0000" font-family="Calibri,Calibri_MSFontService,sans-serif" font-weight="700" font-size="48" transform="translate(293.607 483)">0</text></g><g clip-path="url(#clip29)"><text font-family="Calibri,Calibri_MSFontService,sans-serif" font-weight="700" font-size="48" transform="translate(372.434 483)">1</text></g><g clip-path="url(#clip30)"><text font-family="Calibri,Calibri_MSFontService,sans-serif" font-weight="700" font-size="48" transform="translate(451.26 483)">2</text></g><g clip-path="url(#clip31)"><text font-family="Calibri,Calibri_MSFontService,sans-serif" font-weight="700" font-size="48" transform="translate(293.607 561)">1</text></g><g clip-path="url(#clip32)"><text fill="#FF0000" font-family="Calibri,Calibri_MSFontService,sans-serif" font-weight="700" font-size="48" transform="translate(372.434 561)">3</text></g><g clip-path="url(#clip33)"><text font-family="Calibri,Calibri_MSFontService,sans-serif" font-weight="700" font-size="48" transform="translate(451.26 561)">2</text></g><g clip-path="url(#clip34)"><text font-family="Calibri,Calibri_MSFontService,sans-serif" font-weight="700" font-size="48" transform="translate(293.607 638)">2</text></g><g clip-path="url(#clip35)"><text font-family="Calibri,Calibri_MSFontService,sans-serif" font-weight="700" font-size="48" transform="translate(372.434 638)">2</text></g><g clip-path="url(#clip36)"><text font-family="Calibri,Calibri_MSFontService,sans-serif" font-weight="700" font-size="48" transform="translate(451.26 638)">2</text></g><path d="M910.78 428.347 989.606 428.347 989.606 505.898 910.78 505.898Z" fill="#CADCD8" fill-rule="evenodd"/><path d="M989.606 428.347 1068.43 428.347 1068.43 505.898 989.606 505.898Z" fill="#CADCD8" fill-rule="evenodd"/><path d="M1068.43 428.347 1147.26 428.347 1147.26 505.898 1068.43 505.898Z" fill="#CADCD8" fill-rule="evenodd"/><path d="M910.78 505.898 989.606 505.898 989.606 583.449 910.78 583.449Z" fill="#CADCD8" fill-rule="evenodd"/><path d="M989.606 505.898 1068.43 505.898 1068.43 583.449 989.606 583.449Z" fill="#CADCD8" fill-rule="evenodd"/><path d="M1068.43 505.898 1147.26 505.898 1147.26 583.449 1068.43 583.449Z" fill="#CADCD8" fill-rule="evenodd"/><path d="M910.78 583.449 989.606 583.449 989.606 660 910.78 660Z" fill="#CADCD8" fill-rule="evenodd"/><path d="M989.606 583.449 1068.43 583.449 1068.43 660 989.606 660Z" fill="#CADCD8" fill-rule="evenodd"/><path d="M1068.43 583.449 1147.26 583.449 1147.26 660 1068.43 660Z" fill="#CADCD8" fill-rule="evenodd"/><path d="M989.606 427.68 989.606 660.667" stroke="#000000" stroke-width="1.33333" stroke-linejoin="round" stroke-miterlimit="10" fill="none" fill-rule="evenodd"/><path d="M1068.43 427.68 1068.43 660.667" stroke="#000000" stroke-width="1.33333" stroke-linejoin="round" stroke-miterlimit="10" fill="none" fill-rule="evenodd"/><path d="M910.113 505.898 1147.93 505.898" stroke="#000000" stroke-width="1.33333" stroke-linejoin="round" stroke-miterlimit="10" fill="none" fill-rule="evenodd"/><path d="M910.113 583.449 1147.93 583.449" stroke="#000000" stroke-width="1.33333" stroke-linejoin="round" stroke-miterlimit="10" fill="none" fill-rule="evenodd"/><path d="M910.78 427.68 910.78 660.667" stroke="#000000" stroke-width="1.33333" stroke-linejoin="round" stroke-miterlimit="10" fill="none" fill-rule="evenodd"/><path d="M1147.26 427.68 1147.26 660.667" stroke="#000000" stroke-width="1.33333" stroke-linejoin="round" stroke-miterlimit="10" fill="none" fill-rule="evenodd"/><path d="M910.113 428.347 1147.93 428.347" stroke="#000000" stroke-width="1.33333" stroke-linejoin="round" stroke-miterlimit="10" fill="none" fill-rule="evenodd"/><path d="M910.113 660 1147.93 660" stroke="#000000" stroke-width="1.33333" stroke-linejoin="round" stroke-miterlimit="10" fill="none" fill-rule="evenodd"/><g clip-path="url(#clip37)"><text font-family="Calibri,Calibri_MSFontService,sans-serif" font-weight="700" font-size="48" transform="translate(930.693 483)">-</text></g><g clip-path="url(#clip38)"><text font-family="Calibri,Calibri_MSFontService,sans-serif" font-weight="700" font-size="48" transform="translate(945.36 483)">5</text></g><g clip-path="url(#clip39)"><text font-family="Calibri,Calibri_MSFontService,sans-serif" font-weight="700" font-size="48" transform="translate(1016.85 483)">1</text></g><g clip-path="url(#clip40)"><text font-family="Calibri,Calibri_MSFontService,sans-serif" font-weight="700" font-size="48" transform="translate(1095.68 483)">2</text></g><g clip-path="url(#clip41)"><text font-family="Calibri,Calibri_MSFontService,sans-serif" font-weight="700" font-size="48" transform="translate(938.026 561)">1</text></g><g clip-path="url(#clip42)"><text font-family="Calibri,Calibri_MSFontService,sans-serif" font-weight="700" font-size="48" transform="translate(1009.52 561)">-</text></g><g clip-path="url(#clip43)"><text font-family="Calibri,Calibri_MSFontService,sans-serif" font-weight="700" font-size="48" transform="translate(1024.19 561)">5</text></g><g clip-path="url(#clip44)"><text font-family="Calibri,Calibri_MSFontService,sans-serif" font-weight="700" font-size="48" transform="translate(1095.68 561)">2</text></g><g clip-path="url(#clip45)"><text font-family="Calibri,Calibri_MSFontService,sans-serif" font-weight="700" font-size="48" transform="translate(938.026 638)">2</text></g><g clip-path="url(#clip46)"><text font-family="Calibri,Calibri_MSFontService,sans-serif" font-weight="700" font-size="48" transform="translate(1016.85 638)">2</text></g><g clip-path="url(#clip47)"><text font-family="Calibri,Calibri_MSFontService,sans-serif" font-weight="700" font-size="48" transform="translate(1095.68 638)">2</text></g><text font-family="Calibri,Calibri_MSFontService,sans-serif" font-weight="400" font-size="24" transform="translate(94.8338 131)">Board<tspan font-size="24" x="63.34" y="0">game</tspan><tspan font-size="24" x="116.893" y="0">:</tspan><tspan font-size="24" x="533.1" y="0">New RCD sum:</tspan><tspan font-size="24" x="-46.0334" y="328">Score assigned to </tspan><tspan font-size="24" x="31.8866" y="357">each cell:</tspan><tspan font-size="24" x="528.506" y="328">Score of available </tspan><tspan font-size="24" x="566.64" y="357">cells to place:</tspan></text></g></svg>